<svg xmlns="http://www.w3.org/2000/svg" width="186" height="111" viewBox="0 0 186 111" version="1.1"><path d="M 107.933 9.067 C 106.388 10.612, 105.535 10.859, 104.555 10.045 C 103.637 9.284, 102.432 9.265, 100.540 9.985 C 97.270 11.228, 97.673 13.383, 101.254 13.809 C 102.684 13.980, 104.392 14.767, 105.049 15.559 C 106.520 17.332, 110.142 17.432, 111.925 15.750 C 112.985 14.750, 113.342 14.750, 113.708 15.750 C 114.452 17.778, 116.709 17.181, 117.489 14.750 C 118.132 12.750, 118.266 12.705, 118.697 14.342 C 119.004 15.506, 118.343 16.772, 116.902 17.781 C 113.065 20.468, 110.999 22.915, 111.017 24.750 C 111.026 25.712, 113.112 28.716, 115.653 31.425 C 120.033 36.096, 120.343 36.252, 121.663 34.447 C 122.591 33.178, 122.879 31.037, 122.528 28.022 C 122.239 25.535, 122.264 24.063, 122.585 24.750 C 122.905 25.437, 123.756 26, 124.476 26 C 125.197 26, 126.057 26.706, 126.388 27.569 C 126.746 28.503, 127.700 28.925, 128.745 28.611 C 129.880 28.271, 131.173 29.003, 132.405 30.685 C 134.777 33.926, 133.635 36.186, 129.161 37.101 C 127.429 37.455, 125.399 38.254, 124.649 38.876 C 123.863 39.528, 121.955 39.741, 120.143 39.379 C 117.729 38.896, 117 39.100, 117 40.260 C 117 42.152, 121.705 45.327, 123.492 44.641 C 124.512 44.250, 124.636 44.783, 124.021 46.926 C 123.580 48.463, 122.736 50.625, 122.145 51.729 C 121.554 52.833, 121.276 54.025, 121.527 54.377 C 121.778 54.729, 121.447 54.563, 120.792 54.008 C 118.511 52.079, 114.230 52.892, 112.046 55.669 C 109.414 59.014, 109.717 59.898, 114.311 62.282 C 116.340 63.335, 118 64.811, 118 65.563 C 118 67.978, 121.606 69.011, 127.783 68.365 C 131.737 67.952, 133.957 68.121, 134.421 68.872 C 134.804 69.492, 136.411 70, 137.992 70 C 139.987 70, 141.059 70.611, 141.500 72 C 141.889 73.227, 143.013 74, 144.407 74 C 147.166 74, 149.067 77.587, 147.933 80.653 C 147.494 81.838, 145.755 83.622, 144.068 84.619 C 142.381 85.616, 141 87.185, 141 88.107 C 141 89.028, 139.200 91.960, 137 94.623 C 133.104 99.338, 131.732 104.010, 134.250 103.991 C 136.934 103.970, 146.741 97.419, 152.054 92.096 C 155.433 88.711, 158.996 83.745, 161.070 79.529 C 164.360 72.842, 164.514 72.026, 164.834 59.532 C 165.212 44.814, 164.487 41.291, 159.321 32.739 C 155.115 25.774, 147.545 17.659, 145.780 18.221 C 145.076 18.446, 144.056 19.613, 143.513 20.815 C 142.970 22.017, 142.173 23, 141.741 23 C 140.835 23, 139.404 19.740, 138.538 15.701 C 137.837 12.434, 132.716 9.846, 122.968 7.832 C 118.264 6.861, 116.475 6.847, 114.998 7.769 C 113.794 8.521, 112.870 8.599, 112.487 7.980 C 111.558 6.476, 110.199 6.801, 107.933 9.067 M 25 43 L 25 61 21.500 61 C 18.019 61, 18 60.976, 18 56.500 C 18 52.152, 17.897 52, 14.954 52 L 11.909 52 12.204 58.750 L 12.500 65.500 21.500 65.500 L 30.500 65.500 30.771 45.250 L 31.041 25 28.021 25 L 25 25 25 43 M 36 45.500 L 36 66 39 66 L 42 66 42.043 53.750 L 42.087 41.500 46.793 53.735 C 51.227 65.262, 51.659 65.972, 54.250 65.985 L 57 66 57 45.500 L 57 25 54 25 L 51 25 50.944 36.750 L 50.889 48.500 46.194 36.755 C 41.796 25.752, 41.326 25.010, 38.750 25.005 L 36 25 36 45.500 M 62 45.500 L 62 66 65 66 L 68 66 68 45.500 L 68 25 65 25 L 62 25 62 45.500 M 72 27.500 C 72 29.611, 72.467 30, 75 30 L 78 30 78 48 L 78 66 80.977 66 L 83.954 66 84.227 48.250 L 84.500 30.500 87.750 30.187 C 90.442 29.927, 91 29.455, 91 27.437 C 91 25.025, 90.901 25, 81.500 25 C 72.033 25, 72 25.009, 72 27.500 M 126 42.941 C 126 43.459, 126.375 44.114, 126.833 44.397 C 127.292 44.680, 127.667 44.257, 127.667 43.456 C 127.667 42.655, 127.292 42, 126.833 42 C 126.375 42, 126 42.423, 126 42.941 M 41.667 68.667 C 41.300 69.033, 41 73.983, 41 79.667 C 41 89.333, 41.129 90, 43 90 C 44.758 90, 45 89.333, 45 84.500 C 45 80.278, 45.348 79, 46.500 79 C 47.652 79, 48 80.278, 48 84.500 C 48 88.794, 48.339 90, 49.546 90 C 50.816 90, 51.039 88.800, 50.796 83.250 C 50.505 76.614, 50.454 76.501, 47.750 76.539 C 45.171 76.576, 45 76.312, 45 72.289 C 45 68.241, 43.607 66.727, 41.667 68.667 M 78.667 68.667 C 78.300 69.033, 78 73.983, 78 79.667 C 78 89.333, 78.129 90, 80 90 C 81.879 90, 82 89.333, 82 79 C 82 70.500, 81.697 68, 80.667 68 C 79.933 68, 79.033 68.300, 78.667 68.667 M 109 72.500 C 109 73.333, 109.889 74, 111 74 C 112.111 74, 113 73.333, 113 72.500 C 113 71.667, 112.111 71, 111 71 C 109.889 71, 109 71.667, 109 72.500 M 10 74 C 10 75.100, 9.550 76, 9 76 C 8.450 76, 8 76.675, 8 77.500 C 8 78.325, 8.450 79, 9 79 C 9.550 79, 10 81.475, 10 84.500 C 10 89.700, 10.136 90, 12.500 90 C 14.056 90, 15 89.433, 15 88.500 C 15 87.675, 14.550 87, 14 87 C 13.450 87, 13 85.200, 13 83 C 13 80.800, 13.450 79, 14 79 C 14.550 79, 15 78.325, 15 77.500 C 15 76.675, 14.550 76, 14 76 C 13.450 76, 13 75.100, 13 74 C 13 72.889, 12.333 72, 11.500 72 C 10.667 72, 10 72.889, 10 74 M 17.434 77.311 C 17.133 78.096, 17.024 81.160, 17.193 84.119 L 17.500 89.500 22.250 89.805 C 26.757 90.094, 27 89.979, 27 87.555 C 27 85.951, 26.442 85, 25.500 85 C 24.675 85, 24 85.450, 24 86 C 24 86.550, 23.325 87, 22.500 87 C 21.675 87, 21 86.325, 21 85.500 C 21 84.493, 22.007 84, 24.060 84 C 26.985 84, 27.107 83.834, 26.810 80.250 C 26.509 76.609, 26.377 76.491, 22.241 76.192 C 19.255 75.976, 17.818 76.311, 17.434 77.311 M 29.434 77.311 C 29.133 78.096, 29.024 81.160, 29.193 84.119 L 29.500 89.500 34.250 89.805 C 38.757 90.094, 39 89.979, 39 87.555 C 39 85.951, 38.442 85, 37.500 85 C 36.675 85, 36 85.450, 36 86 C 36 86.550, 35.325 87, 34.500 87 C 33.417 87, 33 85.889, 33 83 C 33 80.111, 33.417 79, 34.500 79 C 35.325 79, 36 79.450, 36 80 C 36 80.550, 36.706 81, 37.570 81 C 38.625 81, 39.034 80.263, 38.820 78.750 C 38.554 76.879, 37.783 76.448, 34.241 76.192 C 31.255 75.976, 29.818 76.311, 29.434 77.311 M 54 83.031 C 54 88.559, 54.310 90, 55.500 90 C 56.652 90, 57 88.722, 57 84.500 C 57 80.278, 57.348 79, 58.500 79 C 59.652 79, 60 80.278, 60 84.500 C 60 89.374, 60.233 90, 62.046 90 C 63.934 90, 64.069 89.480, 63.796 83.250 L 63.500 76.500 58.750 76.281 L 54 76.062 54 83.031 M 66.434 77.311 C 66.133 78.096, 66.024 81.160, 66.193 84.119 L 66.500 89.500 71 89.500 L 75.500 89.500 75.500 83 L 75.500 76.500 71.241 76.192 C 68.255 75.976, 66.818 76.311, 66.434 77.311 M 85 83 L 85 90 89.500 90 L 94 90 94 83 L 94 76 89.500 76 L 85 76 85 83 M 97.412 77.369 C 97.123 78.122, 97.024 81.160, 97.193 84.119 C 97.480 89.157, 97.675 89.520, 100.250 89.816 C 101.763 89.990, 103 90.542, 103 91.041 C 103 91.541, 101.604 91.671, 99.899 91.330 C 97.231 90.796, 96.848 90.975, 97.162 92.605 C 97.456 94.129, 98.405 94.500, 102.014 94.500 L 106.500 94.500 106.788 85.250 L 107.075 76 102.506 76 C 99.561 76, 97.750 76.487, 97.412 77.369 M 109 83 C 109 89.333, 109.190 90, 111 90 C 112.810 90, 113 89.333, 113 83 C 113 76.667, 112.810 76, 111 76 C 109.190 76, 109 76.667, 109 83 M 115.434 77.311 C 115.133 78.096, 115.024 81.160, 115.193 84.119 L 115.500 89.500 120.250 89.805 C 124.757 90.094, 125 89.979, 125 87.555 C 125 85.951, 124.442 85, 123.500 85 C 122.675 85, 122 85.450, 122 86 C 122 86.550, 121.325 87, 120.500 87 C 119.675 87, 119 86.325, 119 85.500 C 119 84.493, 120.007 84, 122.060 84 C 124.985 84, 125.107 83.834, 124.810 80.250 C 124.509 76.609, 124.377 76.491, 120.241 76.192 C 117.255 75.976, 115.818 76.311, 115.434 77.311 M 127.714 76.620 C 125.792 78.542, 127.165 81.901, 130.750 84.044 C 133.300 85.568, 134.036 86.448, 133.050 86.793 C 132.252 87.072, 131.428 86.782, 131.217 86.150 C 131.006 85.517, 129.940 85, 128.847 85 C 127.359 85, 126.941 85.565, 127.180 87.250 C 127.453 89.170, 128.197 89.545, 132.250 89.805 C 136.961 90.107, 137 90.084, 137 87.008 C 137 84.610, 136.322 83.521, 134.006 82.203 C 130.758 80.355, 130.121 79, 132.500 79 C 133.325 79, 134 79.450, 134 80 C 134 80.550, 134.706 81, 135.570 81 C 136.625 81, 137.034 80.263, 136.820 78.750 C 136.557 76.902, 135.779 76.447, 132.464 76.203 C 130.244 76.040, 128.106 76.227, 127.714 76.620 M 21 80.583 C 21 82.349, 23.153 82.042, 23.771 80.188 C 23.989 79.534, 23.454 79, 22.583 79 C 21.712 79, 21 79.713, 21 80.583 M 70 83 C 70 85.200, 70.450 87, 71 87 C 71.550 87, 72 85.200, 72 83 C 72 80.800, 71.550 79, 71 79 C 70.450 79, 70 80.800, 70 83 M 88 83 C 88 85.889, 88.417 87, 89.500 87 C 90.583 87, 91 85.889, 91 83 C 91 80.111, 90.583 79, 89.500 79 C 88.417 79, 88 80.111, 88 83 M 100 83 C 100 85.889, 100.417 87, 101.500 87 C 102.583 87, 103 85.889, 103 83 C 103 80.111, 102.583 79, 101.500 79 C 100.417 79, 100 80.111, 100 83 M 119 80.583 C 119 81.454, 119.534 81.989, 120.188 81.771 C 122.042 81.153, 122.349 79, 120.583 79 C 119.713 79, 119 79.713, 119 80.583" stroke="none" fill="#17698a" fill-rule="evenodd"/><path d="M 0 55.505 L 0 111.010 93.250 110.755 L 186.500 110.500 186.758 55.250 L 187.017 0 93.508 0 L 0 0 0 55.505 M 0.467 56 C 0.467 86.525, 0.594 99.012, 0.749 83.750 C 0.905 68.487, 0.905 43.512, 0.749 28.250 C 0.594 12.987, 0.467 25.475, 0.467 56 M 107.933 9.067 C 106.388 10.612, 105.535 10.859, 104.555 10.045 C 103.637 9.284, 102.432 9.265, 100.540 9.985 C 97.270 11.228, 97.673 13.383, 101.254 13.809 C 102.684 13.980, 104.392 14.767, 105.049 15.559 C 106.520 17.332, 110.142 17.432, 111.925 15.750 C 112.985 14.750, 113.342 14.750, 113.708 15.750 C 114.452 17.778, 116.709 17.181, 117.489 14.750 C 118.132 12.750, 118.266 12.705, 118.697 14.342 C 119.004 15.506, 118.343 16.772, 116.902 17.781 C 113.065 20.468, 110.999 22.915, 111.017 24.750 C 111.026 25.712, 113.112 28.716, 115.653 31.425 C 120.033 36.096, 120.343 36.252, 121.663 34.447 C 122.591 33.178, 122.879 31.037, 122.528 28.022 C 122.239 25.535, 122.264 24.063, 122.585 24.750 C 122.905 25.437, 123.756 26, 124.476 26 C 125.197 26, 126.057 26.706, 126.388 27.569 C 126.746 28.503, 127.700 28.925, 128.745 28.611 C 129.880 28.271, 131.173 29.003, 132.405 30.685 C 134.777 33.926, 133.635 36.186, 129.161 37.101 C 127.429 37.455, 125.399 38.254, 124.649 38.876 C 123.863 39.528, 121.955 39.741, 120.143 39.379 C 117.729 38.896, 117 39.100, 117 40.260 C 117 42.152, 121.705 45.327, 123.492 44.641 C 124.512 44.250, 124.636 44.783, 124.021 46.926 C 123.580 48.463, 122.736 50.625, 122.145 51.729 C 121.554 52.833, 121.276 54.025, 121.527 54.377 C 121.778 54.729, 121.447 54.563, 120.792 54.008 C 118.511 52.079, 114.230 52.892, 112.046 55.669 C 109.414 59.014, 109.717 59.898, 114.311 62.282 C 116.340 63.335, 118 64.811, 118 65.563 C 118 67.978, 121.606 69.011, 127.783 68.365 C 131.737 67.952, 133.957 68.121, 134.421 68.872 C 134.804 69.492, 136.411 70, 137.992 70 C 139.987 70, 141.059 70.611, 141.500 72 C 141.889 73.227, 143.013 74, 144.407 74 C 147.166 74, 149.067 77.587, 147.933 80.653 C 147.494 81.838, 145.755 83.622, 144.068 84.619 C 142.381 85.616, 141 87.185, 141 88.107 C 141 89.028, 139.200 91.960, 137 94.623 C 133.104 99.338, 131.732 104.010, 134.250 103.991 C 136.934 103.970, 146.741 97.419, 152.054 92.096 C 155.433 88.711, 158.996 83.745, 161.070 79.529 C 164.360 72.842, 164.514 72.026, 164.834 59.532 C 165.212 44.814, 164.487 41.291, 159.321 32.739 C 155.115 25.774, 147.545 17.659, 145.780 18.221 C 145.076 18.446, 144.056 19.613, 143.513 20.815 C 142.970 22.017, 142.173 23, 141.741 23 C 140.835 23, 139.404 19.740, 138.538 15.701 C 137.837 12.434, 132.716 9.846, 122.968 7.832 C 118.264 6.861, 116.475 6.847, 114.998 7.769 C 113.794 8.521, 112.870 8.599, 112.487 7.980 C 111.558 6.476, 110.199 6.801, 107.933 9.067 M 25 43 L 25 61 21.500 61 C 18.019 61, 18 60.976, 18 56.500 C 18 52.152, 17.897 52, 14.954 52 L 11.909 52 12.204 58.750 L 12.500 65.500 21.500 65.500 L 30.500 65.500 30.771 45.250 L 31.041 25 28.021 25 L 25 25 25 43 M 36 45.500 L 36 66 39 66 L 42 66 42.043 53.750 L 42.087 41.500 46.793 53.735 C 51.227 65.262, 51.659 65.972, 54.250 65.985 L 57 66 57 45.500 L 57 25 54 25 L 51 25 50.944 36.750 L 50.889 48.500 46.194 36.755 C 41.796 25.752, 41.326 25.010, 38.750 25.005 L 36 25 36 45.500 M 62 45.500 L 62 66 65 66 L 68 66 68 45.500 L 68 25 65 25 L 62 25 62 45.500 M 72 27.500 C 72 29.611, 72.467 30, 75 30 L 78 30 78 48 L 78 66 80.977 66 L 83.954 66 84.227 48.250 L 84.500 30.500 87.750 30.187 C 90.442 29.927, 91 29.455, 91 27.437 C 91 25.025, 90.901 25, 81.500 25 C 72.033 25, 72 25.009, 72 27.500 M 126 42.941 C 126 43.459, 126.375 44.114, 126.833 44.397 C 127.292 44.680, 127.667 44.257, 127.667 43.456 C 127.667 42.655, 127.292 42, 126.833 42 C 126.375 42, 126 42.423, 126 42.941 M 41.667 68.667 C 41.300 69.033, 41 73.983, 41 79.667 C 41 89.333, 41.129 90, 43 90 C 44.758 90, 45 89.333, 45 84.500 C 45 80.278, 45.348 79, 46.500 79 C 47.652 79, 48 80.278, 48 84.500 C 48 88.794, 48.339 90, 49.546 90 C 50.816 90, 51.039 88.800, 50.796 83.250 C 50.505 76.614, 50.454 76.501, 47.750 76.539 C 45.171 76.576, 45 76.312, 45 72.289 C 45 68.241, 43.607 66.727, 41.667 68.667 M 78.667 68.667 C 78.300 69.033, 78 73.983, 78 79.667 C 78 89.333, 78.129 90, 80 90 C 81.879 90, 82 89.333, 82 79 C 82 70.500, 81.697 68, 80.667 68 C 79.933 68, 79.033 68.300, 78.667 68.667 M 109 72.500 C 109 73.333, 109.889 74, 111 74 C 112.111 74, 113 73.333, 113 72.500 C 113 71.667, 112.111 71, 111 71 C 109.889 71, 109 71.667, 109 72.500 M 10 74 C 10 75.100, 9.550 76, 9 76 C 8.450 76, 8 76.675, 8 77.500 C 8 78.325, 8.450 79, 9 79 C 9.550 79, 10 81.475, 10 84.500 C 10 89.700, 10.136 90, 12.500 90 C 14.056 90, 15 89.433, 15 88.500 C 15 87.675, 14.550 87, 14 87 C 13.450 87, 13 85.200, 13 83 C 13 80.800, 13.450 79, 14 79 C 14.550 79, 15 78.325, 15 77.500 C 15 76.675, 14.550 76, 14 76 C 13.450 76, 13 75.100, 13 74 C 13 72.889, 12.333 72, 11.500 72 C 10.667 72, 10 72.889, 10 74 M 17.434 77.311 C 17.133 78.096, 17.024 81.160, 17.193 84.119 L 17.500 89.500 22.250 89.805 C 26.757 90.094, 27 89.979, 27 87.555 C 27 85.951, 26.442 85, 25.500 85 C 24.675 85, 24 85.450, 24 86 C 24 86.550, 23.325 87, 22.500 87 C 21.675 87, 21 86.325, 21 85.500 C 21 84.493, 22.007 84, 24.060 84 C 26.985 84, 27.107 83.834, 26.810 80.250 C 26.509 76.609, 26.377 76.491, 22.241 76.192 C 19.255 75.976, 17.818 76.311, 17.434 77.311 M 29.434 77.311 C 29.133 78.096, 29.024 81.160, 29.193 84.119 L 29.500 89.500 34.250 89.805 C 38.757 90.094, 39 89.979, 39 87.555 C 39 85.951, 38.442 85, 37.500 85 C 36.675 85, 36 85.450, 36 86 C 36 86.550, 35.325 87, 34.500 87 C 33.417 87, 33 85.889, 33 83 C 33 80.111, 33.417 79, 34.500 79 C 35.325 79, 36 79.450, 36 80 C 36 80.550, 36.706 81, 37.570 81 C 38.625 81, 39.034 80.263, 38.820 78.750 C 38.554 76.879, 37.783 76.448, 34.241 76.192 C 31.255 75.976, 29.818 76.311, 29.434 77.311 M 54 83.031 C 54 88.559, 54.310 90, 55.500 90 C 56.652 90, 57 88.722, 57 84.500 C 57 80.278, 57.348 79, 58.500 79 C 59.652 79, 60 80.278, 60 84.500 C 60 89.374, 60.233 90, 62.046 90 C 63.934 90, 64.069 89.480, 63.796 83.250 L 63.500 76.500 58.750 76.281 L 54 76.062 54 83.031 M 66.434 77.311 C 66.133 78.096, 66.024 81.160, 66.193 84.119 L 66.500 89.500 71 89.500 L 75.500 89.500 75.500 83 L 75.500 76.500 71.241 76.192 C 68.255 75.976, 66.818 76.311, 66.434 77.311 M 85 83 L 85 90 89.500 90 L 94 90 94 83 L 94 76 89.500 76 L 85 76 85 83 M 97.412 77.369 C 97.123 78.122, 97.024 81.160, 97.193 84.119 C 97.480 89.157, 97.675 89.520, 100.250 89.816 C 101.763 89.990, 103 90.542, 103 91.041 C 103 91.541, 101.604 91.671, 99.899 91.330 C 97.231 90.796, 96.848 90.975, 97.162 92.605 C 97.456 94.129, 98.405 94.500, 102.014 94.500 L 106.500 94.500 106.788 85.250 L 107.075 76 102.506 76 C 99.561 76, 97.750 76.487, 97.412 77.369 M 109 83 C 109 89.333, 109.190 90, 111 90 C 112.810 90, 113 89.333, 113 83 C 113 76.667, 112.810 76, 111 76 C 109.190 76, 109 76.667, 109 83 M 115.434 77.311 C 115.133 78.096, 115.024 81.160, 115.193 84.119 L 115.500 89.500 120.250 89.805 C 124.757 90.094, 125 89.979, 125 87.555 C 125 85.951, 124.442 85, 123.500 85 C 122.675 85, 122 85.450, 122 86 C 122 86.550, 121.325 87, 120.500 87 C 119.675 87, 119 86.325, 119 85.500 C 119 84.493, 120.007 84, 122.060 84 C 124.985 84, 125.107 83.834, 124.810 80.250 C 124.509 76.609, 124.377 76.491, 120.241 76.192 C 117.255 75.976, 115.818 76.311, 115.434 77.311 M 127.714 76.620 C 125.792 78.542, 127.165 81.901, 130.750 84.044 C 133.300 85.568, 134.036 86.448, 133.050 86.793 C 132.252 87.072, 131.428 86.782, 131.217 86.150 C 131.006 85.517, 129.940 85, 128.847 85 C 127.359 85, 126.941 85.565, 127.180 87.250 C 127.453 89.170, 128.197 89.545, 132.250 89.805 C 136.961 90.107, 137 90.084, 137 87.008 C 137 84.610, 136.322 83.521, 134.006 82.203 C 130.758 80.355, 130.121 79, 132.500 79 C 133.325 79, 134 79.450, 134 80 C 134 80.550, 134.706 81, 135.570 81 C 136.625 81, 137.034 80.263, 136.820 78.750 C 136.557 76.902, 135.779 76.447, 132.464 76.203 C 130.244 76.040, 128.106 76.227, 127.714 76.620 M 21 80.583 C 21 82.349, 23.153 82.042, 23.771 80.188 C 23.989 79.534, 23.454 79, 22.583 79 C 21.712 79, 21 79.713, 21 80.583 M 70 83 C 70 85.200, 70.450 87, 71 87 C 71.550 87, 72 85.200, 72 83 C 72 80.800, 71.550 79, 71 79 C 70.450 79, 70 80.800, 70 83 M 88 83 C 88 85.889, 88.417 87, 89.500 87 C 90.583 87, 91 85.889, 91 83 C 91 80.111, 90.583 79, 89.500 79 C 88.417 79, 88 80.111, 88 83 M 100 83 C 100 85.889, 100.417 87, 101.500 87 C 102.583 87, 103 85.889, 103 83 C 103 80.111, 102.583 79, 101.500 79 C 100.417 79, 100 80.111, 100 83 M 119 80.583 C 119 81.454, 119.534 81.989, 120.188 81.771 C 122.042 81.153, 122.349 79, 120.583 79 C 119.713 79, 119 79.713, 119 80.583" stroke="none" fill="#f9fafa" fill-rule="evenodd"/></svg>