<svg xmlns="http://www.w3.org/2000/svg" version="1.1"
     xmlns:xlink="http://www.w3.org/1999/xlink" xmlns:svgjs="http://svgjs.dev/svgjs"
     width="1440" height="1000" preserveAspectRatio="none" viewBox="0 0 1440 560"><g mask="url(&quot;#SvgjsMask1018&quot;)" fill="none"><rect width="1440" height="560" x="0" y="0" fill="#0e2a47"></rect><path d="M60 560L620 0L1088 0L528 560z" fill="url(&quot;#SvgjsLinearGradient1019&quot;)"></path><path d="M378.8 560L938.8 0L1382.8 0L822.8 560z" fill="url(&quot;#SvgjsLinearGradient1019&quot;)"></path><path d="M674.6 560L1234.6 0L1686.1 0L1126.1 560z" fill="url(&quot;#SvgjsLinearGradient1019&quot;)"></path><path d="M1378 560L818 0L548 0L1108 560z" fill="url(&quot;#SvgjsLinearGradient1020&quot;)"></path><path d="M1119.2 560L559.2 0L250.20000000000005 0L810.2 560z" fill="url(&quot;#SvgjsLinearGradient1020&quot;)"></path><path d="M781.4 560L221.39999999999998 0L99.89999999999998 0L659.9 560z" fill="url(&quot;#SvgjsLinearGradient1020&quot;)"></path><path d="M964.0590287538319 560L1440 84.05902875383185L1440 560z" fill="url(&quot;#SvgjsLinearGradient1019&quot;)"></path><path d="M0 560L475.94097124616815 560L 0 84.05902875383185z" fill="url(&quot;#SvgjsLinearGradient1020&quot;)"></path></g><defs><mask id="SvgjsMask1018"><rect width="1440" height="560" fill="#ffffff"></rect></mask><linearGradient x1="0%" y1="100%" x2="100%" y2="0%" id="SvgjsLinearGradient1019"><stop stop-color="rgba(15, 70, 185, 0.2)" offset="0"></stop><stop stop-opacity="0" stop-color="rgba(15, 70, 185, 0.2)" offset="0.66"></stop></linearGradient><linearGradient x1="100%" y1="100%" x2="0%" y2="0%" id="SvgjsLinearGradient1020"><stop stop-color="rgba(15, 70, 185, 0.2)" offset="0"></stop><stop stop-opacity="0" stop-color="rgba(15, 70, 185, 0.2)" offset="0.66"></stop></linearGradient></defs></svg>